# Alias OBJ Model File
# Exported from SketchUp, (c) 2000-2012 Trimble Navigation Limited
# File units = inches

mtllib Trashcan_Plastic.mtl

g Mesh1 Component_2_1 Group1 Model

usemtl FrontColor
v -2.85214 35.5 -10.6443
vt -9.38272 -5.06003
vn -0.199811 0.635611 -0.745704
v 2.85214 35.5 -10.6443
vt -15.087 -5.06003
vn 0.199811 0.635611 -0.745704
v 3.27832 33.5 -12.2349
vt -15.5132 -7.61538
v -3.27832 33.5 -12.2349
vt -8.95654 -7.61538
f 1/1/1 2/2/2 3/3/2 4/4/1 

v 1.35214 35.5 -9.14433
vt 13.587 9.14433
vn 0 1 -0
v 1.35214 35.5 1.77636e-15
vt 13.587 0
v 10.6443 35.5 1.77636e-15
vt 22.8792 1.97215e-31
v 10.6443 35.5 -2.85214
vt 22.8792 2.85214
v 7.79219 35.5 -7.79219
vt 20.027 7.79219
vt 15.087 10.6443
vt 9.38272 10.6443
v -7.79219 35.5 -7.79219
vt 4.44267 7.79219
v -10.6443 35.5 -2.85214
vt 1.59053 2.85214
v -10.6443 35.5 1.77636e-15
vt 1.59053 -1.97215e-31
v -1.35214 35.5 1.77636e-15
vt 10.8827 0
v -1.35214 35.5 -9.14433
vt 10.8827 9.14433
f 5/5/3 6/6/3 7/7/3 8/8/3 9/9/3 2/10/3 1/11/3 10/12/3 11/13/3 12/14/3 13/15/3 14/16/3 

v 1.35214 36 -7.14433
vt 7.14433 2.5
vn 1 7.14715e-16 -4.6838e-16
v 1.35214 36 1.77636e-15
vt -6.36388e-15 2.5
vt -6.36388e-15 2
vt 9.14433 2
f 15/17/4 16/18/4 6/19/4 5/20/4 

v -1.35214 36 -7.14433
vt 10.8827 7.14433
v -1.35214 36 1.77636e-15
vt 13.587 7.14433
f 17/21/3 18/15/3 16/6/3 15/22/3 

vt -9.14433 2
vn -1 2.47644e-16 -3.45866e-16
vt -3.76397e-15 2
vt -3.76397e-15 2.5
vt -7.14433 2.5
f 14/23/5 13/24/5 18/25/5 17/26/5 

vt -10.8827 -6.32468
vn -1.11022e-16 0.970143 -0.242536
vt -13.587 -6.32468
vt -13.587 -8.38623
vt -10.8827 -8.38623
f 17/27/6 15/28/6 5/29/6 14/30/6 

vt 2.85214 -12.6754
vn 0.745704 0.635611 -0.199811
vt -2.78465e-14 -12.6754
vn 0.782673 0.622433 -9.52601e-16
v 12.2349 33.5 1.77636e-15
vt -2.97824e-14 -15.2308
v 12.2349 33.5 -3.27832
vt 3.27832 -15.2308
f 8/31/7 7/32/8 19/33/8 20/34/7 

vt -24.4697 3.27832
vn 1.11354e-16 -1 -2.38916e-16
vt -24.4697 1.0466e-30
v -12.2349 33.5 1.77636e-15
vt -1.06581e-14 -2.83551e-46
v -12.2349 33.5 -3.27832
vt -7.91215e-31 3.27832
v -8.95654 33.5 -8.95654
vt -3.27832 8.95654
vt -8.95654 12.2349
vt -15.5132 12.2349
v 8.95654 33.5 -8.95654
vt -21.1914 8.95654
f 20/35/9 19/36/9 21/37/9 22/38/9 23/39/9 4/40/9 3/41/9 24/42/9 

vt -3.27832 1.2388e-14
vn -0.745704 0.635611 -0.199811
vt 3.56578e-29 6.63398e-15
vn -0.782673 0.622433 2.6185e-15
vt 5.32127e-15 2.55535
vt -2.85214 2.55535
f 22/43/10 21/44/11 12/45/11 11/46/10 

vt -2.83911 -1.02027
vt -3.26529 1.53508
vt -8.96957 1.53508
vn -0.545893 0.635611 -0.545893
vt -9.39575 -1.02027
f 22/47/10 11/48/10 10/49/12 23/50/12 

vt -7.74356 -1.25234
vt -13.4478 -1.25234
vt -13.874 -3.80769
vt -7.31738 -3.80769
f 10/51/12 1/52/1 4/53/1 23/54/12 

vt -7.74356 -8.86772
vt -13.4478 -8.86772
vn 0.545893 0.635611 -0.545893
vt -13.874 -11.4231
vt -7.31738 -11.4231
f 2/55/2 9/56/13 24/57/13 3/58/2 

vt -2.83911 -14.2105
vt -3.26529 -11.6551
vt -8.96957 -11.6551
vt -9.39575 -14.2105
f 24/59/13 9/60/13 8/61/7 20/62/7 

g Mesh2 Component_2_2 Group1 Model

v 2.85214 35.5 10.6443
vn 0.199811 0.635611 0.745704
v -2.85214 35.5 10.6443
vn -0.199811 0.635611 0.745704
v -3.27832 33.5 12.2349
v 3.27832 33.5 12.2349
f 25/1/14 26/2/15 27/3/15 28/4/14 

v -1.35214 35.5 9.14433
v -1.35214 35.5 1.66387e-15
v -10.6443 35.5 2.8018e-15
v -10.6443 35.5 2.85214
v -7.79219 35.5 7.79219
v 7.79219 35.5 7.79219
v 10.6443 35.5 2.85214
v 10.6443 35.5 1.94778e-16
v 1.35214 35.5 1.3327e-15
v 1.35214 35.5 9.14433
f 29/5/3 30/6/3 31/7/3 32/8/3 33/9/3 26/10/3 25/11/3 34/12/3 35/13/3 36/14/3 37/15/3 38/16/3 

v -1.35214 36 7.14433
vn -1 7.14715e-16 5.90841e-16
v -1.35214 36 1.66387e-15
f 39/17/16 40/18/16 30/19/16 29/20/16 

v 1.35214 36 7.14433
v 1.35214 36 1.3327e-15
f 41/21/3 42/15/3 40/6/3 39/22/3 

vn 1 2.47644e-16 2.23406e-16
f 38/23/17 37/24/17 42/25/17 41/26/17 

vn 1.40723e-16 0.970143 0.242536
f 41/27/18 39/28/18 29/29/18 38/30/18 

vn -0.745704 0.635611 0.199811
vn -0.782673 0.622433 1.04845e-15
v -12.2349 33.5 2.99658e-15
v -12.2349 33.5 3.27832
f 32/31/19 31/32/20 43/33/20 44/34/19 

vn -1.11354e-16 -1 2.38916e-16
v 12.2349 33.5 1.3052e-30
v 12.2349 33.5 3.27832
v 8.95654 33.5 8.95654
v -8.95654 33.5 8.95654
f 44/35/21 43/36/21 45/37/21 46/38/21 47/39/21 28/40/21 27/41/21 48/42/21 

vn 0.745704 0.635611 0.199811
vn 0.782673 0.622433 -2.71435e-15
f 46/43/22 45/44/23 36/45/23 35/46/22 

vn 0.545893 0.635611 0.545893
f 46/47/22 35/48/22 34/49/24 47/50/24 

f 34/51/24 25/52/14 28/53/14 47/54/24 

vn -0.545893 0.635611 0.545893
f 26/55/15 33/56/25 48/57/25 27/58/15 

f 48/59/25 33/60/25 32/61/19 44/62/19 

g Mesh3 Component_3_1 Group2 Model

v -8.4075 30.5 -8.4075
vt -7.51834 30.7373
vn -0.706087 -0.0536929 -0.706087
v -3.07736 30.5 -11.4849
vt -13.6731 30.7373
vn -0.258446 -0.0536929 -0.964532
v -2.6529 0 -9.90074
vt -13.2486 0.196234
v -7.24784 0 -7.24784
vt -7.9428 0.196234
f 49/63/26 50/64/27 51/65/27 52/66/26 

v 12.2349 30.5 -3.27832
vn 3.38673e-32 -1 1.2291e-16
v 12.2349 30.5 -0
vt -24.4697 -3.74876e-15
v 11.4849 30.5 -0
vt -23.7197 -3.74876e-15
v 11.4849 30.5 -3.07736
vt -23.7197 3.07736
v 8.4075 30.5 -8.4075
vt -20.6424 8.4075
v 3.07736 30.5 -11.4849
vt -15.3122 11.4849
vt -9.1575 11.4849
vt -3.82736 8.4075
v -11.4849 30.5 -3.07736
vt -0.75 3.07736
v -11.4849 30.5 -0
vt -0.75 -3.74876e-15
v -12.2349 30.5 -0
vt -1.03295e-30 -3.74876e-15
v -12.2349 30.5 -3.27832
vt -7.10543e-15 3.27832
v -8.95654 30.5 -8.95654
v -3.27832 30.5 -12.2349
v 3.27832 30.5 -12.2349
v 8.95654 30.5 -8.95654
f 53/35/28 54/67/28 55/68/28 56/69/28 57/70/28 58/71/28 50/72/28 49/73/28 59/74/28 60/75/28 61/76/28 62/77/28 63/39/28 64/40/28 65/41/28 66/42/28 

v 12.2349 33.5 -3.27832
vt 3.27832 33.5
vn 0.965926 0 -0.258819
v 12.2349 33.5 -0
vt 1.32589e-14 33.5
vn 1 0 5.4185e-16
vt 1.32589e-14 30.5
vt 3.27832 30.5
f 67/78/29 68/79/30 54/80/30 53/81/29 

vt -9.39575 30.5
vt -2.83911 30.5
vn 0.707107 0 -0.707107
v 8.95654 33.5 -8.95654
vt -2.83911 33.5
vt -9.39575 33.5
f 53/82/29 66/83/31 69/84/31 67/85/29 

vt -13.874 30.5
vt -7.31738 30.5
vn 0.258819 0 -0.965926
v 3.27832 33.5 -12.2349
vt -7.31738 33.5
vt -13.874 33.5
f 66/86/31 65/87/32 70/88/32 69/89/31 

vt -15.5132 30.5
v 2.91549 31.5 -12.2349
vt -15.1503 31.5
vn -9.15934e-16 0 -1
vt -15.5132 33.5
f 65/90/32 71/91/33 70/92/32

v -3.08451 31.5 -12.2349
vt -9.15035 31.5
f 71/91/33 65/90/32 72/93/33

vt -8.95654 30.5
vn -0.258819 0 -0.965926
f 64/94/34 72/93/33 65/90/32

v -3.27832 33.5 -12.2349
vt -8.95654 33.5
f 72/93/33 64/94/34 73/95/34

vn -0.707107 0 -0.707107
v -8.95654 33.5 -8.95654
f 64/86/34 63/87/35 74/88/35 73/89/34 

vn -0.965926 0 -0.258819
v -12.2349 33.5 -3.27832
f 63/82/35 62/83/36 75/84/36 74/85/35 

vt -3.27832 30.5
vt 0 30.5
vn -1 0 -2.1674e-15
v -12.2349 33.5 -0
vt 0 33.5
vt -3.27832 33.5
f 62/96/36 61/97/37 76/98/37 75/99/36 

v -3.08451 32 -12.2349
vt -9.15035 32
f 72/93/33 73/95/34 77/100/33

v -2.58451 32 -12.2349
vt -9.65035 32
f 77/100/33 73/95/34 78/101/33

v 2.41549 32 -12.2349
vt -14.6503 32
f 78/101/33 73/95/34 79/102/33

v 2.91549 32 -12.2349
vt -15.1503 32
f 79/102/33 73/95/34 80/103/33

f 70/92/32 80/103/33 73/95/34

f 70/92/32 71/91/33 80/103/33

vt 12.2349 31.5
vn 1 0 4.66294e-15
v 2.91549 31.5 -14.2349
vt 14.2349 31.5
v 2.91549 32 -14.2349
vt 14.2349 32
vt 12.2349 32
f 71/104/38 81/105/38 82/106/38 80/107/38 

vt -15.1503 12.2349
vn 0 -1 -0
v 2.41549 31.5 -12.2349
vt -14.6503 12.2349
v 2.41549 31.5 -13.7349
vt -14.6503 13.7349
v -2.58451 31.5 -13.7349
vt -9.65035 13.7349
v -2.58451 31.5 -12.2349
vt -9.65035 12.2349
vt -9.15035 12.2349
v -3.08451 31.5 -14.2349
vt -9.15035 14.2349
vt -15.1503 14.2349
f 71/108/39 83/109/39 84/110/39 85/111/39 86/112/39 72/113/39 87/114/39 81/115/39 

vt -9.65035 31.5
vt -14.6503 31.5
f 71/91/33 86/116/33 83/117/33

f 71/91/33 72/93/33 86/116/33

vn 3.55271e-15 0 -1
f 86/116/40 72/93/40 77/100/40 78/101/40 

vt -14.2349 31.5
vn -1 0 -4.88498e-15
vt -12.2349 31.5
vt -12.2349 32
v -3.08451 32 -14.2349
vt -14.2349 32
f 87/118/41 72/119/41 77/120/41 88/121/41 

vt 14.6503 12.2349
vt 15.1503 12.2349
vt 15.1503 14.2349
vt 9.15035 14.2349
vt 9.15035 12.2349
vt 9.65035 12.2349
v -2.58451 32 -13.7349
vt 9.65035 13.7349
v 2.41549 32 -13.7349
vt 14.6503 13.7349
f 79/122/3 80/123/3 82/124/3 88/125/3 77/126/3 78/127/3 89/128/3 90/129/3 

f 71/91/40 83/117/40 79/102/40 80/103/40 

f 83/117/33 78/101/33 79/102/33

f 78/101/33 83/117/33 86/116/33

vn 1 0 4.73695e-15
vt 13.7349 31.5
vt 13.7349 32
f 86/104/42 85/130/42 89/131/42 78/107/42 

vt 9.65035 31.5
vn -4.61853e-15 0 1
vt 14.6503 31.5
vt 14.6503 32
vt 9.65035 32
f 85/132/43 84/133/43 90/134/43 89/135/43 

vt -13.7349 31.5
vn -1 0 -4.73695e-15
vt -13.7349 32
f 84/136/44 83/119/44 79/120/44 90/137/44 

vn 4.73695e-15 0 -1
f 81/91/45 87/93/45 88/100/45 82/103/45 

vt 3.07736 31.6892
vn 0.964532 -0.0536929 -0.258446
vt -5.44362e-14 31.6892
vn 0.998654 -0.0518684 -2.29189e-15
v 9.90074 -8.28115e-16 -0
vt -5.08007e-14 1.14814
v 9.90074 0 -2.6529
vt 2.6529 1.14814
f 56/138/46 55/139/47 91/140/47 92/141/46 

vt -22.1356 2.6529
vn 1.78194e-18 -1 -7.26421e-17
vt -22.1356 3.81868e-33
v -9.90074 -9.20128e-16 -0
vt -2.33412 -3.02138e-34
v -9.90074 0 -2.6529
vt -2.33412 2.6529
vt -4.98701 7.24784
vt -9.58196 9.90074
v 2.6529 0 -9.90074
vt -14.8878 9.90074
v 7.24784 0 -7.24784
vt -19.4827 7.24784
f 92/142/48 91/143/48 93/144/48 94/145/48 52/146/48 51/147/48 95/148/48 96/149/48 

vt -2.6529 -0.121067
vn -0.964532 -0.0536929 -0.258446
vt -8.00056e-15 -0.121067
vn -0.998654 -0.0518684 -3.42304e-15
vt -2.57074e-15 30.42
vt -3.07736 30.42
f 94/150/49 93/151/50 60/152/50 59/153/49 

vt -3.46453 -0.0360464
vt -3.04007 30.5051
vt -9.19479 30.5051
vt -8.77032 -0.0360464
f 94/154/49 59/155/49 49/156/26 52/157/26 

vt -9.1575 31.0546
vt -15.3122 31.0546
vn 0.258446 -0.0536929 -0.964532
vt -14.8878 0.513535
vt -9.58196 0.513535
f 50/158/27 58/159/51 95/160/51 51/161/27 

vt -7.51834 31.3719
vt -13.6731 31.3719
vn 0.706087 -0.0536929 -0.706087
vt -13.2486 0.830837
vt -7.9428 0.830837
f 58/162/51 57/163/52 96/164/52 95/165/51 

vt -3.46453 1.06312
vt -3.04007 31.6042
vt -9.19479 31.6042
vt -8.77032 1.06312
f 96/166/52 57/167/52 56/168/46 92/169/46 

g Mesh4 Component_3_2 Group2 Model

v 8.4075 30.5 8.4075
vn 0.706087 -0.0536929 0.706087
v 3.07736 30.5 11.4849
vn 0.258446 -0.0536929 0.964532
v 2.6529 -1.42897e-15 9.90074
v 7.24784 -1.02717e-15 7.24784
f 97/63/53 98/64/54 99/65/54 100/66/53 

v -12.2349 30.5 3.27832
vn 3.56388e-18 -1 -2.68194e-16
v -12.2349 30.5 5.65139e-15
v -11.4849 30.5 5.55954e-15
v -11.4849 30.5 3.07736
v -8.4075 30.5 8.4075
v -3.07736 30.5 11.4849
v 11.4849 30.5 3.07736
v 11.4849 30.5 2.74666e-15
v 12.2349 30.5 2.65481e-15
v 12.2349 30.5 3.27832
v 8.95654 30.5 8.95654
v 3.27832 30.5 12.2349
v -3.27832 30.5 12.2349
v -8.95654 30.5 8.95654
f 101/35/55 102/67/55 103/68/55 104/69/55 105/70/55 106/71/55 98/72/55 97/73/55 107/74/55 108/75/55 109/76/55 110/77/55 111/39/55 112/40/55 113/41/55 114/42/55 

v -12.2349 33.5 3.27832
vn -0.965926 -4.10448e-17 0.258819
v -12.2349 33.5 6.08724e-15
vn -1 -3.56388e-18 -4.19389e-16
f 115/78/56 116/79/57 102/80/57 101/81/56 

vn -0.707107 -1.05251e-16 0.707107
v -8.95654 33.5 8.95654
f 101/82/56 114/83/58 117/84/58 115/85/56 

vn -0.258819 -1.41256e-16 0.965926
v -3.27832 33.5 12.2349
f 114/86/58 113/87/59 118/88/59 117/89/58 

v -2.91549 31.5 12.2349
vn 1.03839e-15 -1.45284e-16 1
f 113/90/59 119/91/60 118/92/59

v 3.08451 31.5 12.2349
f 119/91/60 113/90/59 120/93/60

vn 0.258819 -1.39411e-16 0.965926
f 112/94/61 120/93/60 113/90/59

v 3.27832 33.5 12.2349
f 120/93/60 112/94/61 121/95/61

vn 0.707107 -1.00211e-16 0.707107
v 8.95654 33.5 8.95654
f 112/86/61 111/87/62 122/88/62 121/89/61 

vn 0.965926 -3.41599e-17 0.258819
v 12.2349 33.5 3.27832
f 111/82/62 110/83/63 123/84/63 122/85/62 

vn 1 3.56388e-18 2.04494e-15
v 12.2349 33.5 3.09066e-15
f 110/96/63 109/97/64 124/98/64 123/99/63 

v 3.08451 32 12.2349
f 120/93/60 121/95/61 125/100/60

v 2.58451 32 12.2349
f 125/100/60 121/95/61 126/101/60

v -2.41549 32 12.2349
f 126/101/60 121/95/61 127/102/60

v -2.91549 32 12.2349
f 127/102/60 121/95/61 128/103/60

f 118/92/59 128/103/60 121/95/61

f 118/92/59 119/91/60 128/103/60

vn -1 -3.56388e-18 -4.54048e-15
v -2.91549 31.5 14.2349
v -2.91549 32 14.2349
f 119/104/65 129/105/65 130/106/65 128/107/65 

vn 3.56388e-18 -1 -1.45284e-16
v -2.41549 31.5 12.2349
v -2.41549 31.5 13.7349
v 2.58451 31.5 13.7349
v 2.58451 31.5 12.2349
v 3.08451 31.5 14.2349
f 119/108/66 131/109/66 132/110/66 133/111/66 134/112/66 120/113/66 135/114/66 129/115/66 

f 119/91/60 134/116/60 131/117/60

f 119/91/60 120/93/60 134/116/60

vn -3.43025e-15 -1.45284e-16 1
f 134/116/67 120/93/67 125/100/67 126/101/67 

vn 1 3.56388e-18 4.76252e-15
v 3.08451 32 14.2349
f 135/118/68 120/119/68 125/120/68 136/121/68 

vn -3.56388e-18 1 1.45284e-16
v 2.58451 32 13.7349
v -2.41549 32 13.7349
f 127/122/69 128/123/69 130/124/69 136/125/69 125/126/69 126/127/69 137/128/69 138/129/69 

f 119/91/67 131/117/67 127/102/67 128/103/67 

f 131/117/60 126/101/60 127/102/60

f 126/101/60 131/117/60 134/116/60

vn -1 -3.56388e-18 -4.61449e-15
f 134/104/70 133/130/70 137/131/70 126/107/70 

vn 4.49607e-15 1.45284e-16 -1
f 133/132/71 132/133/71 138/134/71 137/135/71 

vn 1 3.56388e-18 4.61449e-15
f 132/136/72 131/119/72 127/120/72 138/137/72 

vn -4.61449e-15 -1.45284e-16 1
f 129/91/73 135/93/73 136/100/73 130/103/73 

vn -0.964532 -0.0536929 0.258446
vn -0.998654 -0.0518684 2.40665e-15
v -9.90074 -8.634e-16 9.34383e-16
v -9.90074 -4.20709e-16 2.6529
f 104/138/74 103/139/75 139/140/75 140/141/74 

v 9.90074 -8.84842e-16 -1.49052e-15
v 9.90074 -3.50139e-16 2.6529
v -2.6529 -1.44788e-15 9.90074
v -7.24784 -1.07883e-15 7.24784
f 140/142/48 139/143/48 141/144/48 142/145/48 100/146/48 99/147/48 143/148/48 144/149/48 

vn 0.964532 -0.0536929 0.258446
vn 0.998654 -0.0518684 3.29321e-15
f 142/150/76 141/151/77 108/152/77 107/153/76 

f 142/154/76 107/155/76 97/156/53 100/157/53 

vn -0.258446 -0.0536929 0.964532
f 98/158/54 106/159/78 143/160/78 99/161/54 

vn -0.706087 -0.0536929 0.706087
f 106/162/78 105/163/79 144/164/79 143/165/78 

f 144/166/79 105/167/79 104/168/74 140/169/74 

